<?xml version="1.0" encoding="UTF-8" standalone="no"?>
<!-- Created with Inkscape (http://www.inkscape.org/) -->

<svg
   xmlns:dc="http://purl.org/dc/elements/1.1/"
   xmlns:cc="http://creativecommons.org/ns#"
   xmlns:rdf="http://www.w3.org/1999/02/22-rdf-syntax-ns#"
   xmlns:svg="http://www.w3.org/2000/svg"
   xmlns="http://www.w3.org/2000/svg"
   xmlns:sodipodi="http://sodipodi.sourceforge.net/DTD/sodipodi-0.dtd"
   xmlns:inkscape="http://www.inkscape.org/namespaces/inkscape"
   width="124.8952mm"
   height="115.1559mm"
   viewBox="0 0 442.54206 408.03271"
   id="svg2"
   version="1.1"
   inkscape:version="0.91 r"
   sodipodi:docname="ifni.svg">
  <defs
     id="defs4">
    <inkscape:perspective
       sodipodi:type="inkscape:persp3d"
       inkscape:vp_x="256.25001 : 1070.7124 : 1"
       inkscape:vp_y="5.9762737e-14 : 975.99954 : 0"
       inkscape:vp_z="2090.9695 : 1112.8999 : 1"
       inkscape:persp3d-origin="1072.0472 : 765.63113 : 1"
       id="perspective4162" />
  </defs>
  <sodipodi:namedview
     id="base"
     pagecolor="#ffffff"
     bordercolor="#666666"
     borderopacity="1.0"
     inkscape:pageopacity="0.0"
     inkscape:pageshadow="2"
     inkscape:zoom="0.90509668"
     inkscape:cx="211.9483"
     inkscape:cy="212.54678"
     inkscape:document-units="px"
     inkscape:current-layer="layer1"
     showgrid="false"
     showguides="false"
     inkscape:window-width="1920"
     inkscape:window-height="1123"
     inkscape:window-x="0"
     inkscape:window-y="25"
     inkscape:window-maximized="1"
     fit-margin-top="0"
     fit-margin-left="0"
     fit-margin-right="0"
     fit-margin-bottom="0" />
  <metadata
     id="metadata7">
    <rdf:RDF>
      <cc:Work
         rdf:about="">
        <dc:format>image/svg+xml</dc:format>
        <dc:type
           rdf:resource="http://purl.org/dc/dcmitype/StillImage" />
        <dc:title></dc:title>
      </cc:Work>
    </rdf:RDF>
  </metadata>
  <g
     inkscape:label="Layer 1"
     inkscape:groupmode="layer"
     id="layer1"
     transform="translate(-165.5485,-228.22591)">
    <g
       id="g4250"
       style="fill:#464646;fill-opacity:1;stroke:none"
       transform="translate(-39.774757,-19.887378)">
      <path
         transform="matrix(0.88208617,-0.47108809,0.47108809,0.88208617,-221.88411,246.92138)"
         sodipodi:type="inkscape:box3dside"
         id="path4252"
         style="opacity:1;fill:#464646;fill-opacity:1;fill-rule:evenodd;stroke:none;stroke-width:20;stroke-linecap:butt;stroke-linejoin:round;stroke-miterlimit:4;stroke-dasharray:none;stroke-dashoffset:0;stroke-opacity:1"
         inkscape:box3dsidetype="5"
         d="M 305.20966,356.59062 458.61157,412.9756 655.09986,362.55079 485.07476,323.66582 Z"
         points="458.61157,412.9756 655.09986,362.55079 485.07476,323.66582 305.20966,356.59062 " />
      <path
         transform="matrix(0.88208617,-0.47108809,0.47108809,0.88208617,-221.88411,246.92138)"
         sodipodi:type="inkscape:box3dside"
         id="path4254"
         style="opacity:1;fill:#464646;fill-opacity:1;fill-rule:evenodd;stroke:none;stroke-width:20;stroke-linecap:butt;stroke-linejoin:round;stroke-miterlimit:4;stroke-dasharray:none;stroke-dashoffset:0;stroke-opacity:1"
         inkscape:box3dsidetype="14"
         d="m 458.61157,412.9756 0,284.54289 196.48829,-99.12706 0,-235.84064 z"
         points="458.61157,697.51849 655.09986,598.39143 655.09986,362.55079 458.61157,412.9756 " />
      <path
         transform="matrix(0.88208617,-0.47108809,0.47108809,0.88208617,-221.88411,246.92138)"
         sodipodi:type="inkscape:box3dside"
         id="path4256"
         style="opacity:1;fill:#464646;fill-opacity:1;fill-rule:evenodd;stroke:none;stroke-width:20;stroke-linecap:butt;stroke-linejoin:round;stroke-miterlimit:4;stroke-dasharray:none;stroke-dashoffset:0;stroke-opacity:1"
         inkscape:box3dsidetype="3"
         d="m 305.20966,356.59062 153.40191,56.38498 0,284.54289 -153.40191,-119.94563 z"
         points="458.61157,412.9756 458.61157,697.51849 305.20966,577.57286 305.20966,356.59062 " />
    </g>
    <path
       sodipodi:nodetypes="cssssssssccasssssccsssssssssccasssssccscc"
       inkscape:connector-curvature="0"
       id="path4240"
       d="m 280.23655,448.14062 c -9.59015,-13.28453 -22.82078,-23.70626 -33.36866,-24.42096 -11.65591,-0.78978 -16.21538,11.62307 -8.20913,28.57133 6.39733,13.54235 19.87347,26.35571 29.55127,26.29943 7.32556,-0.0426 8.08511,-9.97505 2.75663,-20.04558 -1.84649,-3.48976 -4.57564,-6.87207 -7.45494,-9.2937 -2.8793,-2.42163 -5.9588,-3.87434 -8.26796,-3.28638 -1.35588,0.34524 -2.24562,1.58416 -2.37552,3.39205 -0.1299,1.8079 0.61943,4.35752 2.58999,6.84453 1.0266,1.29568 3.36842,2.67225 3.36842,2.67225 0,0 5.07193,3.41832 2.73727,4.30453 -1.28503,0.31065 -3.30919,-0.31522 -4.90117,-1.36056 -2.20673,-1.44902 -4.31267,-3.77301 -5.60691,-6.25675 -3.87614,-7.43864 -4.47162,-16.64129 1.64354,-16.61156 8.23376,0.04 20.30087,10.83231 25.94509,22.98138 7.14586,15.38133 2.86153,26.64988 -7.80814,25.81779 -12.97588,-1.01194 -30.34282,-18.01549 -38.19209,-35.85904 -9.27729,-21.08983 -3.18156,-36.31128 11.8075,-34.61671 l -0.13484,-0.0296 c -16.03593,-1.81293 -23.55842,11.80666 -13.59851,34.44823 8.47465,19.26521 27.21819,37.62078 41.32408,38.72084 11.69102,0.91174 16.3692,-11.40749 8.48471,-28.37868 -6.29981,-13.56026 -19.71603,-26.48115 -29.42964,-26.52837 -7.35302,-0.0357 -8.20347,9.84478 -2.94607,19.93414 1.82172,3.49603 4.53007,6.8959 7.39967,9.34138 2.86959,2.44548 5.95092,3.92822 8.27369,3.3667 1.36407,-0.32977 2.26619,-1.55564 2.41196,-3.35423 0.14578,-1.79857 -0.58102,-4.34134 -2.53692,-6.8412 -1.01913,-1.30258 -3.36175,-2.70305 -3.36175,-2.70305 0,0 -5.00131,-2.99398 -2.82366,-4.31752 1.27857,-0.32555 3.3076,0.2711 4.90846,1.30269 2.2152,1.42746 4.34329,3.74068 5.65382,6.2175 3.9254,7.41877 4.61521,16.65974 -1.48199,16.69521 -8.2091,0.0477 -20.33912,-10.65832 -26.06687,-22.78327 -7.25193,-15.35141 -3.08305,-26.70029 7.56063,-25.97909 12.94394,0.87704 30.40342,17.75828 38.3778,35.5728 9.42536,21.05593 3.4851,36.39124 -11.47094,34.85066 l 0.0493,0.0996 c 15.99356,1.64746 23.45785,-12.16657 13.33437,-34.78209 -2.1535,-4.81085 -4.94582,-9.55674 -8.14253,-13.98492 z"
       style="color:#000000;font-style:normal;font-variant:normal;font-weight:normal;font-stretch:normal;font-size:medium;line-height:normal;font-family:sans-serif;text-indent:0;text-align:start;text-decoration:none;text-decoration-line:none;text-decoration-style:solid;text-decoration-color:#000000;letter-spacing:normal;word-spacing:normal;text-transform:none;direction:ltr;block-progression:tb;writing-mode:lr-tb;baseline-shift:baseline;text-anchor:start;white-space:normal;clip-rule:nonzero;display:inline;overflow:visible;visibility:visible;opacity:1;isolation:auto;mix-blend-mode:normal;color-interpolation:sRGB;color-interpolation-filters:linearRGB;solid-color:#000000;solid-opacity:1;fill:#ffffff;fill-opacity:1;fill-rule:evenodd;stroke:#ffffff;stroke-width:3;stroke-linecap:butt;stroke-linejoin:miter;stroke-miterlimit:4;stroke-dasharray:none;stroke-dashoffset:0;stroke-opacity:1;color-rendering:auto;image-rendering:auto;shape-rendering:auto;text-rendering:auto;enable-background:accumulate" />
    <path
       style="color:#000000;font-style:normal;font-variant:normal;font-weight:normal;font-stretch:normal;font-size:medium;line-height:normal;font-family:sans-serif;text-indent:0;text-align:start;text-decoration:none;text-decoration-line:none;text-decoration-style:solid;text-decoration-color:#000000;letter-spacing:normal;word-spacing:normal;text-transform:none;direction:ltr;block-progression:tb;writing-mode:lr-tb;baseline-shift:baseline;text-anchor:start;white-space:normal;clip-rule:nonzero;display:inline;overflow:visible;visibility:visible;opacity:1;isolation:auto;mix-blend-mode:normal;color-interpolation:sRGB;color-interpolation-filters:linearRGB;solid-color:#000000;solid-opacity:1;fill:#ffffff;fill-opacity:1;fill-rule:evenodd;stroke:#ffffff;stroke-width:5;stroke-linecap:butt;stroke-linejoin:miter;stroke-miterlimit:4;stroke-dasharray:none;stroke-dashoffset:0;stroke-opacity:1;color-rendering:auto;image-rendering:auto;shape-rendering:auto;text-rendering:auto;enable-background:accumulate"
       d="m 529.5991,434.43195 c 3.0071,-29.36066 -6.18188,-59.50678 -26.3191,-73.58885 -22.25256,-15.56135 -52.41994,-4.97724 -64.81297,27.21061 -9.90253,25.71942 -4.25166,59.30562 15.42571,71.29301 14.89466,9.07379 33.18849,-2.99562 39.39649,-22.83331 2.15128,-6.87439 2.33527,-14.70799 0.59468,-21.46981 -1.74057,-6.76182 -5.52089,-12.50343 -11.18527,-14.61076 -3.326,-1.23737 -7.21649,-0.72266 -10.5294,1.4846 -3.31294,2.20728 -6.09815,6.4823 -6.30664,12.19726 -0.10861,2.97735 2.30746,7.69982 2.30746,7.69982 0,0 4.49571,10.80052 -1.72343,9.05224 -3.12425,-1.19439 -6.16412,-4.53722 -7.6218,-7.89112 -2.02055,-4.64904 -2.36102,-10.3191 -0.78954,-15.18689 4.70648,-14.5787 19.02725,-27.38046 31.35072,-19.72037 16.59297,10.31392 22.80251,39.49557 13.72669,62.45056 -11.49045,29.06219 -39.17054,38.48967 -59.35614,24.10198 -24.54868,-17.49754 -31.0031,-61.42378 -16.78199,-94.58922 16.80837,-39.19923 54.82262,-51.54931 82.29314,-30.64825 l -0.22314,-0.20658 c -29.38912,-22.36085 -67.58784,-13.88805 -85.6329,28.19539 -15.35415,35.80785 -8.39524,83.22146 18.29125,102.24277 22.11786,15.76494 52.36748,5.45144 65.04561,-26.61471 10.13004,-25.62134 4.78185,-59.27378 -14.79338,-71.44143 -14.81806,-9.21068 -33.20821,2.6774 -39.59182,22.45117 -2.21196,6.85173 -2.46765,14.68243 -0.78695,21.46341 1.68069,6.78098 5.41405,12.5642 11.06137,14.72314 3.31647,1.26786 7.21,0.78569 10.53933,-1.38959 3.32933,-2.17527 6.14857,-6.41325 6.40842,-12.12678 0.1354,-2.97707 -2.24201,-7.73185 -2.24201,-7.73185 0,0 -5.06875,-10.15645 1.57052,-9.17695 3.13632,1.16682 6.23535,4.47741 7.73421,7.82438 2.07406,4.63134 2.47753,10.31489 0.95069,15.19392 -4.57331,14.61405 -18.76785,27.58361 -31.16498,20.03132 -16.69112,-10.16818 -23.17342,-39.31522 -14.30733,-62.34273 11.22536,-29.15516 38.80736,-38.83179 59.12746,-24.62181 24.7116,17.28095 31.55964,61.16224 17.64065,94.44556 -16.45158,39.33934 -54.34332,52.03239 -82.00682,31.37428 l -0.0683,0.19208 c 29.58256,22.0912 67.99153,13.29106 85.66168,-28.9621 3.75885,-8.98824 6.11549,-18.68748 7.11786,-28.47437 z"
       id="path4138"
       inkscape:connector-curvature="0"
       sodipodi:nodetypes="cssssssssccasssssccsssssssssccasssssccscc" />
    <path
       style="color:#000000;font-style:normal;font-variant:normal;font-weight:normal;font-stretch:normal;font-size:medium;line-height:normal;font-family:sans-serif;text-indent:0;text-align:start;text-decoration:none;text-decoration-line:none;text-decoration-style:solid;text-decoration-color:#000000;letter-spacing:normal;word-spacing:normal;text-transform:none;direction:ltr;block-progression:tb;writing-mode:lr-tb;baseline-shift:baseline;text-anchor:start;white-space:normal;clip-rule:nonzero;display:inline;overflow:visible;visibility:visible;opacity:1;isolation:auto;mix-blend-mode:normal;color-interpolation:sRGB;color-interpolation-filters:linearRGB;solid-color:#000000;solid-opacity:1;fill:#ffffff;fill-opacity:1;fill-rule:evenodd;stroke:#ffffff;stroke-width:2;stroke-linecap:butt;stroke-linejoin:miter;stroke-miterlimit:4;stroke-dasharray:none;stroke-dashoffset:0;stroke-opacity:1;color-rendering:auto;image-rendering:auto;shape-rendering:auto;text-rendering:auto;enable-background:accumulate"
       d="m 395.91252,296.92728 c 7.25604,-3.99057 13.82013,-9.00703 15.7428,-12.53663 2.12463,-3.90038 -2.59016,-4.63924 -11.20142,-0.94543 -6.88075,2.9515 -14.52494,8.19702 -15.97861,11.39142 -1.10036,2.41799 3.11355,2.05464 8.31755,-0.32894 1.80335,-0.826 3.69468,-1.937 5.19015,-3.0382 1.49547,-1.1012 2.59913,-2.20863 2.69552,-2.93529 0.0566,-0.42668 -0.34756,-0.64408 -1.11588,-0.57516 -0.76829,0.0689 -1.99421,0.4742 -3.37937,1.27916 -0.72165,0.41937 -1.67944,1.27833 -1.67944,1.27833 0,0 -2.26487,1.88737 -2.2946,1.17073 0.0609,-0.4054 0.64287,-1.11297 1.34174,-1.70367 0.96873,-0.81881 2.30352,-1.65843 3.58395,-2.2397 3.83483,-1.74091 7.93755,-2.50686 6.99055,-0.48436 -1.27509,2.7232 -7.823,7.37811 -13.98133,9.99458 -7.79676,3.3126 -12.05474,2.59388 -10.06229,-0.98323 2.4231,-4.35028 12.48824,-11.14061 21.46581,-14.83792 10.61087,-4.36996 16.31538,-3.29718 13.28719,1.76054 l 0.0335,-0.0464 c 3.23969,-5.41097 -1.5486,-7.05428 -12.94018,-2.36278 -9.69285,3.99189 -20.55765,11.32073 -23.19177,16.04985 -2.18317,3.91952 2.47268,4.7034 11.07534,1.04841 6.87367,-2.9204 14.55558,-8.15275 16.05984,-11.3654 1.1387,-2.4319 -3.03869,-2.1018 -8.24004,0.25946 -1.80229,0.81819 -3.69811,1.92341 -5.20249,3.02288 -1.50438,1.09947 -2.62141,2.20936 -2.73141,2.94215 -0.0646,0.43034 0.33202,0.65262 1.09383,0.58954 0.76179,-0.0631 1.98129,-0.46051 3.36983,-1.26142 0.72349,-0.41733 1.69183,-1.27803 1.69183,-1.27803 0,0 2.0691,-1.83779 2.31346,-1.20007 -0.0534,0.40235 -0.62339,1.10971 -1.31762,1.7025 -0.96063,0.82026 -2.2941,1.66654 -3.57402,2.25278 -3.83368,1.75594 -7.96752,2.55544 -7.05169,0.5429 1.23306,-2.70962 7.753,-7.37998 13.91357,-10.02257 7.79993,-3.34579 12.11056,-2.67018 10.17042,0.89147 -2.35941,4.33138 -12.38537,11.14473 -21.3694,14.88158 -10.6187,4.4168 -16.3966,3.40243 -13.44058,-1.63486 l -0.051,0.0225 c -3.16108,5.38673 1.72085,6.99879 13.12607,2.25485 2.42616,-1.00915 4.92157,-2.22537 7.34025,-3.55556 z"
       id="path4242"
       inkscape:connector-curvature="0"
       sodipodi:nodetypes="cssssssssccasssssccsssssssssccasssssccscc" />
    <path
       style="color:#000000;font-style:normal;font-variant:normal;font-weight:normal;font-stretch:normal;font-size:medium;line-height:normal;font-family:sans-serif;text-indent:0;text-align:start;text-decoration:none;text-decoration-line:none;text-decoration-style:solid;text-decoration-color:#000000;letter-spacing:normal;word-spacing:normal;text-transform:none;direction:ltr;block-progression:tb;writing-mode:lr-tb;baseline-shift:baseline;text-anchor:start;white-space:normal;clip-rule:nonzero;display:inline;overflow:visible;visibility:visible;opacity:1;isolation:auto;mix-blend-mode:normal;color-interpolation:sRGB;color-interpolation-filters:linearRGB;solid-color:#000000;solid-opacity:1;fill:#ffffff;fill-opacity:1;fill-rule:evenodd;stroke:#ffffff;stroke-width:3;stroke-linecap:butt;stroke-linejoin:miter;stroke-miterlimit:4;stroke-dasharray:none;stroke-dashoffset:0;stroke-opacity:1;color-rendering:auto;image-rendering:auto;shape-rendering:auto;text-rendering:auto;enable-background:accumulate"
       d="m 388.04905,535.64062 c -9.59015,-13.28453 -22.82078,-23.70626 -33.36866,-24.42096 -11.65591,-0.78978 -16.21538,11.62307 -8.20913,28.57133 6.39733,13.54235 19.87347,26.35571 29.55127,26.29943 7.32556,-0.0426 8.08511,-9.97505 2.75663,-20.04558 -1.84649,-3.48976 -4.57564,-6.87207 -7.45494,-9.2937 -2.8793,-2.42163 -5.9588,-3.87434 -8.26796,-3.28638 -1.35588,0.34524 -2.24562,1.58416 -2.37552,3.39205 -0.1299,1.8079 0.61943,4.35752 2.58999,6.84453 1.0266,1.29568 3.36842,2.67225 3.36842,2.67225 0,0 5.07193,3.41832 2.73727,4.30453 -1.28503,0.31065 -3.30919,-0.31522 -4.90117,-1.36056 -2.20673,-1.44902 -4.31267,-3.77301 -5.60691,-6.25675 -3.87614,-7.43864 -4.47162,-16.64129 1.64354,-16.61156 8.23376,0.04 20.30087,10.83231 25.94509,22.98138 7.14586,15.38133 2.86153,26.64988 -7.80814,25.81779 -12.97588,-1.01194 -30.34282,-18.01549 -38.19209,-35.85904 -9.27729,-21.08983 -3.18156,-36.31128 11.8075,-34.61671 l -0.13484,-0.0296 c -16.03593,-1.81293 -23.55842,11.80666 -13.59851,34.44823 8.47465,19.26521 27.21819,37.62078 41.32408,38.72084 11.69102,0.91174 16.3692,-11.40749 8.48471,-28.37868 -6.29981,-13.56026 -19.71603,-26.48115 -29.42964,-26.52837 -7.35302,-0.0357 -8.20347,9.84478 -2.94607,19.93414 1.82172,3.49603 4.53007,6.8959 7.39967,9.34138 2.86959,2.44548 5.95092,3.92822 8.27369,3.3667 1.36407,-0.32977 2.26619,-1.55564 2.41196,-3.35423 0.14578,-1.79857 -0.58102,-4.34134 -2.53692,-6.8412 -1.01913,-1.30258 -3.36175,-2.70305 -3.36175,-2.70305 0,0 -5.00131,-2.99398 -2.82366,-4.31752 1.27857,-0.32555 3.3076,0.2711 4.90846,1.30269 2.2152,1.42746 4.34329,3.74068 5.65382,6.2175 3.9254,7.41877 4.61521,16.65974 -1.48199,16.69521 -8.2091,0.0477 -20.33912,-10.65832 -26.06687,-22.78327 -7.25193,-15.35141 -3.08305,-26.70029 7.56063,-25.97909 12.94394,0.87704 30.40342,17.75828 38.3778,35.5728 9.42536,21.05593 3.4851,36.39124 -11.47094,34.85066 l 0.0493,0.0996 c 15.99356,1.64746 23.45785,-12.16657 13.33437,-34.78209 -2.1535,-4.81085 -4.94582,-9.55674 -8.14253,-13.98492 z"
       id="path4244"
       inkscape:connector-curvature="0"
       sodipodi:nodetypes="cssssssssccasssssccsssssssssccasssssccscc" />
    <path
       sodipodi:nodetypes="cssssssssccasssssccsssssssssccasssssccscc"
       inkscape:connector-curvature="0"
       id="path4246"
       d="m 331.27854,332.28262 c 7.25604,-3.99057 13.82013,-9.00703 15.7428,-12.53663 2.12463,-3.90038 -2.59016,-4.63924 -11.20142,-0.94543 -6.88075,2.9515 -14.52494,8.19702 -15.97861,11.39142 -1.10036,2.41799 3.11355,2.05464 8.31755,-0.32894 1.80335,-0.826 3.69468,-1.937 5.19015,-3.0382 1.49547,-1.1012 2.59913,-2.20863 2.69552,-2.93529 0.0566,-0.42668 -0.34756,-0.64408 -1.11588,-0.57516 -0.76829,0.0689 -1.99421,0.4742 -3.37937,1.27916 -0.72165,0.41937 -1.67944,1.27833 -1.67944,1.27833 0,0 -2.26487,1.88737 -2.2946,1.17073 0.0609,-0.4054 0.64287,-1.11297 1.34174,-1.70367 0.96873,-0.81881 2.30352,-1.65843 3.58395,-2.2397 3.83483,-1.74091 7.93755,-2.50686 6.99055,-0.48436 -1.27509,2.7232 -7.823,7.37811 -13.98133,9.99458 -7.79676,3.3126 -12.05474,2.59388 -10.06229,-0.98323 2.4231,-4.35028 12.48824,-11.14061 21.46581,-14.83792 10.61087,-4.36996 16.31538,-3.29718 13.28719,1.76054 l 0.0335,-0.0464 c 3.23969,-5.41097 -1.5486,-7.05428 -12.94018,-2.36278 -9.69285,3.99189 -20.55765,11.32073 -23.19177,16.04985 -2.18317,3.91952 2.47268,4.7034 11.07534,1.04841 6.87367,-2.9204 14.55558,-8.15275 16.05984,-11.3654 1.1387,-2.4319 -3.03869,-2.1018 -8.24004,0.25946 -1.80229,0.81819 -3.69811,1.92341 -5.20249,3.02288 -1.50438,1.09947 -2.62141,2.20936 -2.73141,2.94215 -0.0646,0.43034 0.33202,0.65262 1.09383,0.58954 0.76179,-0.0631 1.98129,-0.46051 3.36983,-1.26142 0.72349,-0.41733 1.69183,-1.27803 1.69183,-1.27803 0,0 2.0691,-1.83779 2.31346,-1.20007 -0.0534,0.40235 -0.62339,1.10971 -1.31762,1.7025 -0.96063,0.82026 -2.2941,1.66654 -3.57402,2.25278 -3.83368,1.75594 -7.96752,2.55544 -7.05169,0.5429 1.23306,-2.70962 7.753,-7.37998 13.91357,-10.02257 7.79993,-3.34579 12.11056,-2.67018 10.17042,0.89147 -2.35941,4.33138 -12.38537,11.14473 -21.3694,14.88158 -10.6187,4.4168 -16.3966,3.40243 -13.44058,-1.63486 l -0.051,0.0225 c -3.16108,5.38673 1.72085,6.99879 13.12607,2.25485 2.42616,-1.00915 4.92157,-2.22537 7.34025,-3.55556 z"
       style="color:#000000;font-style:normal;font-variant:normal;font-weight:normal;font-stretch:normal;font-size:medium;line-height:normal;font-family:sans-serif;text-indent:0;text-align:start;text-decoration:none;text-decoration-line:none;text-decoration-style:solid;text-decoration-color:#000000;letter-spacing:normal;word-spacing:normal;text-transform:none;direction:ltr;block-progression:tb;writing-mode:lr-tb;baseline-shift:baseline;text-anchor:start;white-space:normal;clip-rule:nonzero;display:inline;overflow:visible;visibility:visible;opacity:1;isolation:auto;mix-blend-mode:normal;color-interpolation:sRGB;color-interpolation-filters:linearRGB;solid-color:#000000;solid-opacity:1;fill:#ffffff;fill-opacity:1;fill-rule:evenodd;stroke:#ffffff;stroke-width:2;stroke-linecap:butt;stroke-linejoin:miter;stroke-miterlimit:4;stroke-dasharray:none;stroke-dashoffset:0;stroke-opacity:1;color-rendering:auto;image-rendering:auto;shape-rendering:auto;text-rendering:auto;enable-background:accumulate" />
    <path
       style="color:#000000;font-style:normal;font-variant:normal;font-weight:normal;font-stretch:normal;font-size:medium;line-height:normal;font-family:sans-serif;text-indent:0;text-align:start;text-decoration:none;text-decoration-line:none;text-decoration-style:solid;text-decoration-color:#000000;letter-spacing:normal;word-spacing:normal;text-transform:none;direction:ltr;block-progression:tb;writing-mode:lr-tb;baseline-shift:baseline;text-anchor:start;white-space:normal;clip-rule:nonzero;display:inline;overflow:visible;visibility:visible;opacity:1;isolation:auto;mix-blend-mode:normal;color-interpolation:sRGB;color-interpolation-filters:linearRGB;solid-color:#000000;solid-opacity:1;fill:#ffffff;fill-opacity:1;fill-rule:evenodd;stroke:#ffffff;stroke-width:2;stroke-linecap:butt;stroke-linejoin:miter;stroke-miterlimit:4;stroke-dasharray:none;stroke-dashoffset:0;stroke-opacity:1;color-rendering:auto;image-rendering:auto;shape-rendering:auto;text-rendering:auto;enable-background:accumulate"
       d="m 268.30184,365.42825 c 7.25604,-3.99057 13.82013,-9.00703 15.7428,-12.53663 2.12463,-3.90038 -2.59016,-4.63924 -11.20142,-0.94543 -6.88075,2.9515 -14.52494,8.19702 -15.97861,11.39142 -1.10036,2.41799 3.11355,2.05464 8.31755,-0.32894 1.80335,-0.826 3.69468,-1.937 5.19015,-3.0382 1.49547,-1.1012 2.59913,-2.20863 2.69552,-2.93529 0.0566,-0.42668 -0.34756,-0.64408 -1.11588,-0.57516 -0.76829,0.0689 -1.99421,0.4742 -3.37937,1.27916 -0.72165,0.41937 -1.67944,1.27833 -1.67944,1.27833 0,0 -2.26487,1.88737 -2.2946,1.17073 0.0609,-0.4054 0.64287,-1.11297 1.34174,-1.70367 0.96873,-0.81881 2.30352,-1.65843 3.58395,-2.2397 3.83483,-1.74091 7.93755,-2.50686 6.99055,-0.48436 -1.27509,2.7232 -7.823,7.37811 -13.98133,9.99458 -7.79676,3.3126 -12.05474,2.59388 -10.06229,-0.98323 2.4231,-4.35028 12.48824,-11.14061 21.46581,-14.83792 10.61087,-4.36996 16.31538,-3.29718 13.28719,1.76054 l 0.0335,-0.0464 c 3.23969,-5.41097 -1.5486,-7.05428 -12.94018,-2.36278 -9.69285,3.99189 -20.55765,11.32073 -23.19177,16.04985 -2.18317,3.91952 2.47268,4.7034 11.07534,1.04841 6.87367,-2.9204 14.55558,-8.15275 16.05984,-11.3654 1.1387,-2.4319 -3.03869,-2.1018 -8.24004,0.25946 -1.80229,0.81819 -3.69811,1.92341 -5.20249,3.02288 -1.50438,1.09947 -2.62141,2.20936 -2.73141,2.94215 -0.0646,0.43034 0.33202,0.65262 1.09383,0.58954 0.76179,-0.0631 1.98129,-0.46051 3.36983,-1.26142 0.72349,-0.41733 1.69183,-1.27803 1.69183,-1.27803 0,0 2.0691,-1.83779 2.31346,-1.20007 -0.0534,0.40235 -0.62339,1.10971 -1.31762,1.7025 -0.96063,0.82026 -2.2941,1.66654 -3.57402,2.25278 -3.83368,1.75594 -7.96752,2.55544 -7.05169,0.5429 1.23306,-2.70962 7.753,-7.37998 13.91357,-10.02257 7.79993,-3.34579 12.11056,-2.67018 10.17042,0.89147 -2.35941,4.33138 -12.38537,11.14473 -21.3694,14.88158 -10.6187,4.4168 -16.3966,3.40243 -13.44058,-1.63486 l -0.051,0.0225 c -3.16108,5.38673 1.72085,6.99879 13.12607,2.25485 2.42616,-1.00915 4.92157,-2.22537 7.34025,-3.55556 z"
       id="path4248"
       inkscape:connector-curvature="0"
       sodipodi:nodetypes="cssssssssccasssssccsssssssssccasssssccscc" />
    <g
       id="g4235"
       transform="translate(-39.774757,-19.887378)">
      <path
         transform="matrix(0.88208617,-0.47108809,0.47108809,0.88208617,-221.88411,246.92138)"
         style="opacity:1;fill:#000000;fill-opacity:0.23636367;fill-rule:evenodd;stroke:#ffffff;stroke-width:20;stroke-linecap:butt;stroke-linejoin:round;stroke-miterlimit:4;stroke-dasharray:none;stroke-dashoffset:0;stroke-opacity:1"
         d="m 655.09986,362.55079 -170.0251,-38.88497 -179.8651,32.9248 153.40191,56.38498 z"
         id="path4168-6"
         inkscape:connector-curvature="0" />
      <path
         transform="matrix(0.88208617,-0.47108809,0.47108809,0.88208617,-221.88411,246.92138)"
         style="opacity:1;fill:#ffffff;fill-opacity:0.13939394;fill-rule:evenodd;stroke:#ffffff;stroke-width:20;stroke-linecap:butt;stroke-linejoin:round;stroke-miterlimit:4;stroke-dasharray:none;stroke-dashoffset:0;stroke-opacity:1"
         d="m 655.09986,598.39143 0,-235.84064 -196.48829,50.42481 0,284.54289 z"
         id="path4172-7"
         inkscape:connector-curvature="0" />
      <path
         transform="matrix(0.88208617,-0.47108809,0.47108809,0.88208617,-221.88411,246.92138)"
         style="opacity:1;fill:#5c5c5c;fill-opacity:0.369697;fill-rule:evenodd;stroke:#ffffff;stroke-width:20;stroke-linecap:butt;stroke-linejoin:round;stroke-miterlimit:4;stroke-dasharray:none;stroke-dashoffset:0;stroke-opacity:1"
         d="m 458.61157,697.51849 -153.40191,-119.94563 0,-220.98224 153.40191,56.38498 z"
         id="path4170-4"
         inkscape:connector-curvature="0" />
    </g>
    <path
       style="fill:#ffffff;fill-opacity:1;fill-rule:evenodd;stroke:none;stroke-width:1px;stroke-linecap:butt;stroke-linejoin:miter;stroke-opacity:1"
       d="m 313.22621,383.92532 27.06893,13.81068 16.02039,-4.97184 0.55243,-28.72622 -9.94369,-7.73398 -33.69806,15.46797 z"
       id="path4293"
       inkscape:connector-curvature="0" />
    <path
       style="fill:#ffffff;fill-opacity:1;fill-rule:evenodd;stroke:none;stroke-width:1px;stroke-linecap:butt;stroke-linejoin:miter;stroke-opacity:1"
       d="m 472.32523,259.07678 23.20194,3.31457 -14.3631,-22.09709 z"
       id="path4299"
       inkscape:connector-curvature="0"
       sodipodi:nodetypes="cccc" />
    <path
       style="fill:#ffffff;fill-opacity:1;fill-rule:evenodd;stroke:none;stroke-width:1px;stroke-linecap:butt;stroke-linejoin:miter;stroke-opacity:1"
       d="m 581.70582,428.1195 -1.10486,33.14563 13.25825,-16.02039 z"
       id="path4301"
       inkscape:connector-curvature="0" />
    <path
       style="fill:#ffffff;fill-opacity:1;fill-rule:evenodd;stroke:none;stroke-width:1px;stroke-linecap:butt;stroke-linejoin:miter;stroke-opacity:1"
       d="m 461.82912,597.16221 18.78252,3.86699 -7.18155,22.64952 -29.27865,-1.65729 4.97185,-25.41164 z"
       id="path4303"
       inkscape:connector-curvature="0"
       sodipodi:nodetypes="cccccc" />
    <path
       style="fill:#ffffff;fill-opacity:1;fill-rule:evenodd;stroke:none;stroke-width:1px;stroke-linecap:butt;stroke-linejoin:miter;stroke-opacity:1"
       d="m 274.00388,568.436 23.20194,23.20194 -24.85922,-2.20971 z"
       id="path4305"
       inkscape:connector-curvature="0" />
    <path
       style="fill:#ffffff;fill-opacity:1;fill-rule:evenodd;stroke:none;stroke-width:1px;stroke-linecap:butt;stroke-linejoin:miter;stroke-opacity:1"
       d="m 190.03495,414.86124 c 1.10485,-2.76213 8.83883,-15.46796 8.83883,-15.46796 l -15.46796,2.20971 z"
       id="path4307"
       inkscape:connector-curvature="0" />
  </g>
</svg>
